<svg xmlns="http://www.w3.org/2000/svg" width="256" height="256" viewBox="0 0 256 256">
  <path fill="#fff" d="M74.781,180.948C28.69,152.147,17.714,86.569,50.434,34.206L217.345,138.5C184.624,190.867,120.872,209.749,74.781,180.948Zm64.2-54.824a7.537,7.537,0,1,0-8.656,12.341c3.408,2.39,18.8,3.982,18.8,3.982S142.387,128.515,138.98,126.124Zm1.19,39.89a7.537,7.537,0,1,0,14.332,4.67c1.29-3.958-1.687-19.146-1.687-19.146S141.46,162.056,140.17,166.014Zm41.318-32.584a7.537,7.537,0,0,0-9.882-3.993c-3.832,1.627-13.33,13.846-13.33,13.846s15.388,1.656,19.22.03A7.537,7.537,0,0,0,181.488,133.43Zm56.574,61.841c5.168-12.268,7.3-24.075,6.245-33.389l12.03,11.821A159.255,159.255,0,0,1,238.062,195.271Zm-23.45,11.334c-2.767,4.429-5.565,8.691-8.357,12.748-35.906,20.332-78.02,24.26-114.344,8.348,48.295,11.724,103.262-8.339,140.122-52.695A313.038,313.038,0,0,1,214.612,206.605Zm25.672-40.591c0.277,10.263-2.856,22.931-9.216,35.745a152.3,152.3,0,0,1-13.947,10.808C227.791,195.191,235.88,178.659,240.284,166.014ZM56.137,208.689C-3.758,171.263-18.02,86.044,24.5,18L38.46,26.724C1.415,86.009,13.841,160.256,66.026,192.864s124.364,11.23,161.409-48.055l13.962,8.724C198.877,221.578,116.032,246.116,56.137,208.689Z" />
</svg>