<?xml version="1.0" encoding="utf-8"?>
<!-- Generator: Adobe Illustrator 17.1.0, SVG Export Plug-In . SVG Version: 6.00 Build 0)  -->
<!DOCTYPE svg PUBLIC "-//W3C//DTD SVG 1.1//EN" "http://www.w3.org/Graphics/SVG/1.1/DTD/svg11.dtd">
<svg version="1.1" id="Layer_1" xmlns="http://www.w3.org/2000/svg" xmlns:xlink="http://www.w3.org/1999/xlink" x="0px" y="0px"
	 width="164px" height="820px" viewBox="0 0 164 820" enable-background="new 0 0 164 820" xml:space="preserve">
<g id="Google_x2B_">
	<g>
		<path fill="#DD4B39" d="M162,798c0,11-9,20-20,20H22c-11,0-20-9-20-20V678c0-11,9-20,20-20h120c11,0,20,9,20,20V798z"/>
	</g>
	<g>
		<g>
			<path fill="#FFFFFF" d="M94.4,684.3H66.3c-3.7,0-7.7,0.4-12,1.3c-4.3,1-8.4,3.2-12.4,6.5c-5.8,5.6-8.7,11.9-8.7,18.8
				c0,5.7,2,10.7,6.2,15.1c3.9,4.6,9.6,7,17.1,7.1c1.4,0,2.9-0.1,4.5-0.3c-0.3,0.7-0.5,1.5-0.9,2.4c-0.4,0.8-0.5,1.9-0.5,3.1
				c0,2.1,0.5,3.8,1.4,5.3c0.8,1.5,1.7,2.9,2.7,4.3c-3.3,0.1-7.4,0.5-12.3,1.2c-5,0.9-9.8,2.6-14.3,5.2c-4,2.4-6.8,5.2-8.4,8.4
				c-1.6,3.2-2.4,6.1-2.4,8.7c0,5.4,2.4,9.9,7.3,13.8c4.8,4.1,12.2,6.2,22,6.3c11.7-0.2,20.7-3,27-8.5c6-5.3,9-11.3,9-18.1
				c-0.1-4.8-1.2-8.7-3.3-11.7c-2.2-2.9-4.8-5.6-7.8-8l-4.8-3.9c-0.7-0.7-1.4-1.5-2.1-2.4c-0.9-1-1.3-2.2-1.3-3.6
				c0-1.5,0.4-2.8,1.3-4c0.7-1.1,1.5-2.1,2.3-3c1.5-1.3,2.8-2.5,4.1-3.8c1.2-1.2,2.3-2.6,3.3-4.1c2.1-3,3.2-7.1,3.3-12.1
				c0-2.8-0.3-5.2-0.9-7.2c-0.7-2.1-1.6-3.8-2.6-5.4c-1-1.6-2.1-3-3.1-4.1c-1.1-1.1-2.1-1.9-3-2.4h8.7L94.4,684.3z M79,761.2
				c2.3,2.7,3.5,5.8,3.5,9.3c0,4.4-1.7,8-5.1,10.8c-3.5,2.8-8.5,4.3-15.1,4.4c-7.4-0.1-13.2-1.7-17.4-5c-4.5-3.2-6.7-7.3-6.7-12.2
				c0-2.5,0.5-4.7,1.5-6.5c0.9-1.7,2-3.1,3.3-4.3c1.3-1.1,2.7-1.9,4-2.5c1.3-0.6,2.3-1,3-1.2c3-0.9,6-1.6,8.9-2
				c2.9-0.3,4.8-0.4,5.5-0.3c1.2,0,2.3,0,3.2,0.1C72.7,755.6,76.5,758.7,79,761.2z M74.4,719.7c-0.3,1.9-1.1,3.7-2.3,5.5
				c-2.5,2.5-5.5,3.9-9.2,4c-2.9,0-5.5-0.9-7.8-2.7c-2.3-1.8-4.1-4-5.6-6.5c-3-5.5-4.5-10.8-4.5-15.9c-0.1-3.9,0.9-7.3,3.1-10.5
				c2.5-3,5.7-4.5,9.5-4.6c2.9,0.1,5.4,0.9,7.6,2.5c2.2,1.7,3.9,3.9,5.2,6.6c2.8,5.6,4.2,11.3,4.2,16.8
				C74.7,716.3,74.6,717.9,74.4,719.7z M123.2,728.3v-15h-8.4v15H100v8.6h14.8v14.6h8.4v-14.6h15.3v-8.6H123.2z"/>
		</g>
	</g>
</g>
<g id="Twitch">
	<g>
		<path fill="#6441A5" d="M162,634c0,11-9,20-20,20H22c-11,0-20-9-20-20V514c0-11,9-20,20-20h120c11,0,20,9,20,20V634z"/>
	</g>
	<path fill="#F1F1F1" d="M130,583l-17.7,19H83.2L67,617.7V602H42v-78h88V583z M31.8,513L23,533v87h31v16h15.3L86,620h23.6l31.4-32.8
		V513H31.8z M82,545H72v32h10V545z M111,545h-10v32h10V545z"/>
</g>
<g id="YouTube">
	<g>
		<linearGradient id="SVGID_1_" gradientUnits="userSpaceOnUse" x1="82" y1="489.7529" x2="82" y2="330.1082">
			<stop  offset="0" style="stop-color:#B31217"/>
			<stop  offset="0.459" style="stop-color:#CC1F1F"/>
			<stop  offset="1" style="stop-color:#E52D27"/>
		</linearGradient>
		<path fill="url(#SVGID_1_)" d="M162,470c0,11-9,20-20,20H22c-11,0-20-9-20-20V350c0-11,9-20,20-20h120c11,0,20,9,20,20V470z"/>
	</g>
	<path id="The_Sharpness" opacity="0.12" fill-rule="evenodd" clip-rule="evenodd" d="M70.8,394.3l25.6,17.1l3.6-1.9L70.8,394.3z"/>
	<g id="Lozenge">
		<g>
			<path fill="#FFFFFF" d="M134.9,389.1c0,0-1.1-7.4-4.3-10.7c-4.1-4.3-8.7-4.3-10.8-4.6c-15.1-1.1-37.7-1.1-37.7-1.1h0
				c0,0-22.6,0-37.7,1.1c-2.1,0.3-6.7,0.3-10.8,4.6c-3.2,3.3-4.3,10.7-4.3,10.7s-1.1,8.7-1.1,17.5v8.2c0,8.7,1.1,17.5,1.1,17.5
				s1.1,7.4,4.3,10.7c4.1,4.3,9.5,4.2,11.9,4.6c8.6,0.8,36.7,1.1,36.7,1.1s22.7,0,37.8-1.1c2.1-0.3,6.7-0.3,10.8-4.6
				c3.2-3.3,4.3-10.7,4.3-10.7s1.1-8.7,1.1-17.5v-8.2C135.9,397.8,134.9,389.1,134.9,389.1z M70.9,424.7l0-30.3l29.2,15.2
				L70.9,424.7z"/>
		</g>
	</g>
</g>
<g id="Twitter">
	<g>
		<path fill="#14B1E7" d="M162,306c0,11-9,20-20,20H22c-11,0-20-9-20-20V186c0-11,9-20,20-20h120c11,0,20,9,20,20V306z"/>
	</g>
	<path fill="#FFFFFF" d="M122.4,221.2c-3,1.3-6.1,2.2-9.5,2.6c3.4-2,6-5.3,7.3-9.1c-3.2,1.9-6.7,3.3-10.5,4c-3-3.2-7.3-5.2-12.1-5.2
		c-9.1,0-16.5,7.4-16.5,16.5c0,1.3,0.1,2.6,0.4,3.8c-13.7-0.7-25.9-7.3-34-17.3c-1.4,2.4-2.2,5.3-2.2,8.3c0,5.7,2.9,10.8,7.3,13.7
		c-2.7-0.1-5.3-0.8-7.5-2.1c0,0.1,0,0.1,0,0.2c0,8,5.7,14.7,13.3,16.2c-1.4,0.4-2.8,0.6-4.4,0.6c-1.1,0-2.1-0.1-3.1-0.3
		c2.1,6.6,8.2,11.3,15.4,11.5c-5.7,4.4-12.8,7.1-20.5,7.1c-1.3,0-2.6-0.1-3.9-0.2c7.3,4.7,16,7.4,25.3,7.4c30.4,0,47-25.2,47-47
		c0-0.7,0-1.4,0-2.1C117.4,227.4,120.2,224.5,122.4,221.2z"/>
</g>
<g id="Facebook">
	<g>
		<path fill="#3B5998" d="M162,142c0,11-9,20-20,20H22c-11,0-20-9-20-20V22C2,11,11,2,22,2h120c11,0,20,9,20,20V142z"/>
	</g>
	<path id="f" fill="#FFFFFF" d="M112.2,162v-61.4H133l3.1-23.9h-23.9V61.3c0-6.9,1.9-11.7,12-11.7l12.8,0V28.2
		c-2.2-0.3-9.8-0.9-18.6-0.9c-18.4,0-31,11.2-31,31.7v17.7H66.5v23.9h20.8V162H112.2z"/>
</g>
</svg>
